<svg version="1.1" xmlns="http://www.w3.org/2000/svg" style="display: block;" viewBox="0 0 2048 2048" width="1024" height="1024" preserveAspectRatio="none">
<path transform="translate(0,0)" fill="rgb(232,163,163)" d="M 995.257 671.12 C 1189.9 655.381 1360.46 800.375 1376.27 995.013 C 1392.07 1189.65 1247.13 1360.26 1052.5 1376.13 C 857.777 1392.01 687.068 1246.98 671.257 1052.26 C 655.446 857.528 800.523 686.867 995.257 671.12 z M 1047.51 1348.88 C 1227.05 1335.94 1362.09 1179.87 1349.07 1000.34 C 1336.06 820.803 1179.93 685.836 1000.4 698.923 C 820.977 712.004 686.105 868.022 699.111 1047.45 C 712.118 1226.88 868.08 1361.82 1047.51 1348.88 z"/>
<path transform="translate(0,0)" fill="rgb(232,163,163)" d="M 1006.51 728.154 C 1169.87 718.546 1310.03 843.3 1319.43 1006.67 C 1328.82 1170.04 1203.89 1310.04 1040.51 1319.22 C 877.425 1328.39 737.737 1203.73 728.358 1040.66 C 718.979 877.595 843.454 737.745 1006.51 728.154 z M 1037.48 1292.21 C 1185.5 1284.9 1299.64 1159.12 1292.6 1011.08 C 1285.55 863.052 1159.97 748.678 1011.93 755.457 C 863.506 762.252 748.775 888.221 755.839 1036.63 C 762.903 1185.04 889.079 1299.55 1037.48 1292.21 z"/>
<path transform="translate(0,0)" fill="rgb(232,163,163)" d="M 1010.05 785.49 C 1141.76 777.912 1254.65 878.588 1262.14 1010.3 C 1269.62 1142.01 1168.87 1254.83 1037.15 1262.23 C 905.562 1269.62 792.876 1168.98 785.397 1037.4 C 777.917 905.816 878.474 793.06 1010.05 785.49 z M 1036.44 1235.92 C 1153.57 1228.89 1242.75 1128.12 1235.48 1011 C 1228.21 893.883 1127.26 804.91 1010.15 812.416 C 893.387 819.901 804.722 920.506 811.971 1037.29 C 819.22 1154.07 919.646 1242.94 1036.44 1235.92 z"/>
<path transform="translate(0,0)" fill="rgb(0,0,0)" d="M 976.071 886.115 C 984.237 885.523 997.429 885.948 1005.96 885.955 C 1005.77 914.197 1005.81 942.44 1006.08 970.682 L 1021.59 970.972 C 1021.95 978.512 1021.37 985.909 1020.92 993.437 L 1005.89 993.157 L 1005.84 1021.05 C 999.612 1021.24 982.934 1022.48 978.552 1019.69 L 978.016 1016.25 L 977.839 993.897 C 960.213 993.511 942.585 993.273 924.956 993.184 C 925.234 985.719 924.898 976.599 924.819 969.015 C 934.516 954.241 966.944 894.608 976.071 886.115 z M 951.445 971.008 L 977.761 970.939 C 977.829 961.801 979.219 931.38 976.255 925.523 C 966.143 941.876 959.001 952.911 950.618 970.305 L 951.445 971.008 z"/>
<path transform="translate(0,0)" fill="rgb(0,0,0)" d="M 1080.35 885.403 C 1081.91 885.358 1083.46 885.354 1085.01 885.389 C 1107.06 886.032 1125.92 899.369 1124.53 923.051 C 1123.74 936.622 1117.85 942.661 1108.29 950.89 C 1118.43 957.293 1123.93 961.889 1126.66 974.313 C 1129.52 987.326 1127.78 1000.32 1118.31 1010.24 C 1098.32 1031.18 1048.27 1029.11 1039.76 997.22 C 1038.56 992.739 1038.78 985.991 1038.8 981.217 C 1045.67 980.217 1054.44 980.21 1061.52 980.009 C 1071.93 983.742 1065.74 995.978 1071.46 999.76 C 1099.81 1018.49 1115.39 960.499 1069.92 961.544 L 1070.08 941.867 C 1094.77 941.9 1104.75 927.377 1089.58 906.496 C 1071.75 900.772 1069.14 910.181 1066.74 925.946 C 1057.71 925.852 1048.68 926.017 1039.66 926.442 C 1042.29 896.449 1049.81 887.575 1080.35 885.403 z"/>
<path transform="translate(0,0)" fill="rgb(0,0,0)" d="M 909.616 1035.2 L 910.826 1035.07 C 943.998 1031.9 954.751 1045.99 957.381 1076.93 L 931.426 1077.07 C 930.86 1070.63 927.77 1054.69 921.777 1053.9 C 897.476 1050.7 902.735 1099.3 903.079 1112.07 C 903.396 1123.88 908.758 1137.4 917.858 1139.66 C 928.829 1138.44 930.293 1119.63 931.583 1111.2 C 935.485 1108.7 951.532 1109.86 957.218 1109.99 C 956.818 1120.13 956.016 1130.63 951.796 1139.92 C 943.542 1158.1 912.681 1161.17 896.939 1152.58 C 881.599 1144.22 876.637 1123.65 876.215 1107.34 C 876.244 1089.74 875.286 1066.32 883.961 1050.59 C 889.448 1040.65 899.454 1037.3 909.616 1035.2 z"/>
<path transform="translate(0,0)" fill="rgb(0,0,0)" d="M 998.615 1063.44 C 1054.99 1059.69 1031.24 1116.52 1037.69 1154.09 C 1031.73 1154.19 1022.44 1154.7 1016.66 1153.7 C 1015.2 1153.44 1014.06 1150.3 1013.11 1148.52 L 1011.5 1148.33 L 1005.39 1154.42 C 989.547 1157.75 979.973 1158.43 969.54 1144.16 C 954.083 1104.78 994.92 1107.98 1011.8 1092.53 C 1017.27 1087.52 1001.87 1070.16 991.138 1090.7 L 990.481 1091.98 C 984.884 1096.03 976.916 1093.8 969.742 1092.93 C 971.086 1071.12 977.377 1067 998.615 1063.44 z M 992.308 1123.13 C 992.517 1129.31 991.94 1133.61 995.715 1138.59 C 1013.52 1141.7 1016.37 1116.35 1011.21 1111 C 1003.8 1115.03 998.714 1117.53 992.308 1123.13 z"/>
<path transform="translate(0,0)" fill="rgb(0,0,0)" d="M 1133.52 1063.36 C 1169.42 1064.54 1171.26 1082.93 1171.08 1113.35 C 1156.29 1113.35 1141.65 1113.21 1126.88 1114.05 C 1127.15 1121.45 1127.35 1136.19 1135.75 1140.27 C 1144.08 1144.31 1147.53 1129.41 1148.52 1123.68 C 1155.7 1123.84 1164.75 1123.39 1171.23 1125.86 C 1168.18 1137.48 1165.71 1151.13 1152.31 1155.1 C 1142.07 1158.14 1130.37 1158.09 1120.73 1153.11 C 1112.26 1148.77 1106.02 1141.06 1103.53 1131.87 C 1099.65 1117.76 1100.2 1089.95 1108.54 1077.36 C 1115.58 1066.72 1121.91 1066.19 1133.52 1063.36 z M 1143.42 1099.95 C 1155.72 1095.51 1147.4 1079.66 1133.69 1079.88 C 1119.55 1092.82 1126.08 1100.35 1143.42 1099.95 z"/>
<path transform="translate(0,0)" fill="rgb(0,0,0)" d="M 1077.82 1034.41 C 1089.16 1033.94 1097.15 1032.66 1094.66 1050.34 C 1094.17 1053.86 1080 1053.38 1081.35 1061.72 C 1085.89 1066.82 1088.9 1066.06 1095.81 1066.61 C 1095.97 1071.6 1096.96 1077.98 1093.98 1081.72 C 1090.28 1083.9 1086.55 1083.14 1082.05 1082.95 C 1082 1092.64 1083.92 1149.78 1081.78 1153.79 L 1079.25 1154 C 1072.18 1154.02 1065.11 1154.09 1058.05 1154.21 L 1057.83 1083.29 L 1045.92 1082.85 L 1046.03 1066.4 L 1057.96 1066.54 C 1057.85 1048.07 1057.32 1039.09 1077.82 1034.41 z"/>
</svg>